Coordinates
version=1
nRows=24
nColumns=24
inDegrees=yes

Units are S.I. units (second, meters, Newtons, ...)
Angles are in degrees.

endheader
time	pelvis_tilt	pelvis_list	pelvis_rotation	pelvis_tx	pelvis_ty	pelvis_tz	hip_flexion_r	hip_adduction_r	hip_rotation_r	knee_angle_r	ankle_angle_r	subtalar_angle_r	mtp_angle_r	hip_flexion_l	hip_adduction_l	hip_rotation_l	knee_angle_l	ankle_angle_l	subtalar_angle_l	mtp_angle_l	lumbar_extension	lumbar_bending	lumbar_rotation
      4.70000000	      0.04754596	      6.52302147	     -3.08122231	     -0.46176888	      0.93572164	      0.19444778	     22.83091436	     -5.74738721	      1.95017108	    -68.22013517	      8.06022890	    -17.07102964	      0.00000000	     13.51558084	     12.98687237	      2.83369779	    -25.05356761	     18.91935550	    -13.31818720	      0.00000000	    -11.66280948	     -9.91442114	     -9.04816023
      4.70500000	      0.04973825	      6.27722536	     -2.97078223	     -0.45513781	      0.93704660	      0.19391148	     23.36266430	     -5.42720481	      1.84136824	    -67.25806318	      8.41077892	    -16.87588424	      0.00000000	     12.74896232	     12.82387368	      3.18606780	    -24.55319116	     18.95433928	    -13.43503911	      0.00000000	    -11.68472642	     -9.56409295	     -9.11404647
      4.71000000	      0.16258744	      6.05567521	     -2.78244734	     -0.44849828	      0.93847066	      0.19322018	     23.71607847	     -5.18096576	      1.65124374	    -66.19146291	      8.74676262	    -16.72585131	      0.00000000	     11.83612424	     12.72262687	      3.73406579	    -24.02145419	     18.93996206	    -13.62410892	      0.00000000	    -11.85878865	     -9.21252880	     -9.39549050
      4.71500000	      0.19559627	      5.83229337	     -2.62199819	     -0.44187762	      0.93970488	      0.19260131	     24.13681387	     -4.92006746	      1.47294167	    -65.05005087	      9.05890904	    -16.57837429	      0.00000000	     11.03960364	     12.58233916	      4.12700797	    -23.52152989	     18.95697571	    -13.75146881	      0.00000000	    -11.92743043	     -8.87006983	     -9.56943247
      4.72000000	      0.22778620	      5.61975334	     -2.44255162	     -0.43526492	      0.94087849	      0.19198076	     24.52471275	     -4.67946795	      1.27666299	    -63.82753548	      9.32603645	    -16.44410539	      0.00000000	     10.24445161	     12.44545455	      4.52972884	    -23.01801984	     18.96992848	    -13.86027520	      0.00000000	    -11.99715952	     -8.54483363	     -9.77919133
      4.72500000	      0.18082248	      5.42602810	     -2.31027548	     -0.42866791	      0.94186310	      0.19147530	     24.98549967	     -4.42271804	      1.15426799	    -62.54486639	      9.55756462	    -16.27820049	      0.00000000	      9.55929972	     12.29543543	      4.80961583	    -22.53694967	     18.99962866	    -13.89633337	      0.00000000	    -11.96155659	     -8.25418230	     -9.90498470
      4.73000000	      0.27014386	      5.24198675	     -2.05362421	     -0.42205479	      0.94296649	      0.19079645	     25.22715141	     -4.25885641	      0.85931884	    -61.14789994	      9.77603077	    -16.22985362	      0.00000000	      8.70146432	     12.18838512	      5.28496748	    -22.03160537	     19.00229684	    -14.02424200	      0.00000000	    -12.11228999	     -7.95995396	    -10.26652624
      4.73500000	      0.28154019	      5.07340608	     -1.85999392	     -0.41544372	      0.94386833	      0.19019679	     25.54182815	     -4.07918976	      0.64315197	    -59.69300197	      9.97978798	    -16.12917431	      0.00000000	      7.95155496	     12.06879108	      5.62211614	    -21.54421185	     19.02015836	    -14.10331539	      0.00000000	    -12.15247151	     -7.68513487	    -10.50230502
      4.74000000	      0.28010915	      4.91777598	     -1.65222357	     -0.40883476	      0.94466940	      0.18960758	     25.83780108	     -3.92061568	      0.41231017	    -58.16496937	     10.15617107	    -16.03431682	      0.00000000	      7.22622717	     11.95367849	      5.94188950	    -21.07258276	     19.04708970	    -14.16230035	      0.00000000	    -12.17719382	     -7.43185437	    -10.75968734
      4.74500000	      0.26818871	      4.77623259	     -1.43838507	     -0.40222556	      0.94536449	      0.18901718	     26.11345366	     -3.78384850	      0.17333268	    -56.56587264	     10.31701255	    -15.93752625	      0.00000000	      6.52103718	     11.84613789	      6.24336593	    -20.61023650	     19.08118012	    -14.21079540	      0.00000000	    -12.18885410	     -7.19256675	    -11.02317392
      4.75000000	      0.22575833	      4.64527459	     -1.22671610	     -0.39560472	      0.94591719	      0.18841059	     26.39462110	     -3.67026806	     -0.08425803	    -54.90163312	     10.46764409	    -15.81939056	      0.00000000	      5.86267191	     11.74286854	      6.49927637	    -20.16657215	     19.13405768	    -14.24366895	      0.00000000	    -12.15648106	     -6.96208202	    -11.23852042
      4.75500000	      0.20318023	      4.52646070	     -0.98983649	     -0.38898648	      0.94642396	      0.18784159	     26.61336557	     -3.57260932	     -0.34827238	    -53.16285708	     10.59539441	    -15.70052446	      0.00000000	      5.18523600	     11.64633820	      6.78973298	    -19.72881659	     19.17639583	    -14.28029348	      0.00000000	    -12.15841969	     -6.75754673	    -11.53414522
      4.76000000	      0.17525591	      4.42795897	     -0.75614824	     -0.38236944	      0.94682600	      0.18727131	     26.80983701	     -3.50060088	     -0.60838372	    -51.36305293	     10.71272007	    -15.55500128	      0.00000000	      4.52463909	     11.56678835	      7.06188254	    -19.30502157	     19.21762398	    -14.31830366	      0.00000000	    -12.15027892	     -6.57477917	    -11.82995560
      4.76500000	      0.14520459	      4.34522143	     -0.50830628	     -0.37574680	      0.94713779	      0.18667282	     26.97466704	     -3.45780246	     -0.88250065	    -49.50028369	     10.81879475	    -15.38410866	      0.00000000	      3.87541534	     11.50164151	      7.33507125	    -18.89659329	     19.25822997	    -14.35687324	      0.00000000	    -12.13972320	     -6.40181952	    -12.13434140
      4.77000000	      0.13334804	      4.28632139	     -0.25541214	     -0.36912936	      0.94739295	      0.18608206	     27.08768879	     -3.44103923	     -1.14195346	    -47.57962777	     10.90869369	    -15.18032779	      0.00000000	      3.21157955	     11.45842183	      7.61844953	    -18.49393972	     19.27770808	    -14.41640969	      0.00000000	    -12.15484534	     -6.25827008	    -12.49382252
      4.77500000	      0.07085315	      4.22806978	     -0.01264771	     -0.36248296	      0.94747393	      0.18551618	     27.22669722	     -3.43551345	     -1.43663774	    -45.60378821	     11.00793448	    -14.92539096	      0.00000000	      2.61912825	     11.40985943	      7.86789813	    -18.12385537	     19.33572078	    -14.45327835	      0.00000000	    -12.10080976	     -6.12484914	    -12.75981692
      4.78000000	      0.01559538	      4.18443071	      0.24460608	     -0.35585014	      0.94748853	      0.18494708	     27.32281989	     -3.44882184	     -1.72181472	    -43.57386357	     11.09640601	    -14.62807577	      0.00000000	      2.02477301	     11.37317666	      8.12490594	    -17.76194803	     19.38242190	    -14.50065966	      0.00000000	    -12.06370813	     -6.00612525	    -13.07062128
      4.78500000	     -0.03116159	      4.15754339	      0.51314285	     -0.34920839	      0.94743627	      0.18435427	     27.37598799	     -3.49104338	     -2.02030164	    -41.49404775	     11.17738049	    -14.28688608	      0.00000000	      1.42499242	     11.35345745	      8.40060838	    -17.40991677	     19.42211340	    -14.56493797	      0.00000000	    -12.03971214	     -5.90262001	    -13.39381155
      4.79000000	     -0.08604205	      4.14348845	      0.77150644	     -0.34257159	      0.94728939	      0.18380406	     27.41039975	     -3.54555229	     -2.31645641	    -39.37150745	     11.25542043	    -13.89334513	      0.00000000	      0.84324923	     11.34210406	      8.67134832	    -17.07428818	     19.45884926	    -14.63780243	      0.00000000	    -12.00608203	     -5.81875197	    -13.70959176
      4.79500000	     -0.13305632	      4.14582409	      1.03904748	     -0.33593312	      0.94707867	      0.18324397	     27.40715131	     -3.62760213	     -2.63382642	    -37.21179349	     11.32501806	    -13.45517179	      0.00000000	      0.25544776	     11.34600260	      8.96139400	    -16.74604262	     19.49155582	    -14.72701432	      0.00000000	    -11.98797820	     -5.75491192	    -14.04043423
      4.80000000	     -0.19377221	      4.15361564	      1.31117110	     -0.32929139	      0.94677190	      0.18268799	     27.39113291	     -3.72178642	     -2.96832049	    -35.02179740	     11.39401116	    -12.96530044	      0.00000000	     -0.31001642	     11.35211429	      9.24437941	    -16.43320016	     19.53174204	    -14.82080407	      0.00000000	    -11.95860004	     -5.70002275	    -14.34367480
      4.80500000	     -0.25695479	      4.17276492	      1.57615271	     -0.32263648	      0.94638444	      0.18214179	     27.35705103	     -3.83206567	     -3.32358192	    -32.81307477	     11.45680041	    -12.42607454	      0.00000000	     -0.86592844	     11.36723787	      9.52547827	    -16.13763665	     19.57782908	    -14.91581464	      0.00000000	    -11.92423697	     -5.65456996	    -14.64832746
      4.81000000	     -0.29774926	      4.20798127	      1.85179197	     -0.31598162	      0.94596316	      0.18159982	     27.28262745	     -3.97214360	     -3.73667245	    -30.60068452	     11.51179417	    -11.83445424	      0.00000000	     -1.44972872	     11.39393242	      9.83835261	    -15.84002630	     19.61130911	    -15.02975412	      0.00000000	    -11.92306443	     -5.62969311	    -14.97698445
      4.81500000	     -0.35162604	      4.24428066	      2.12206395	     -0.30931383	      0.94544898	      0.18107396	     27.21062751	     -4.11557907	     -4.18524664	    -28.39510946	     11.55952555	    -11.18819808	      0.00000000	     -2.01215967	     11.41778027	     10.13525086	    -15.55877168	     19.66022137	    -15.14205752	      0.00000000	    -11.90867238	     -5.60685435	    -15.27325832
